<svg xmlns="http://www.w3.org/2000/svg" viewBox="0 0 638.78 664.76"><defs><style>.cls-1{fill:#e9b522;}.cls-2{fill:#f7de61;}.cls-3{fill:#ce9811;}.cls-4{fill:#fff2bd;}</style></defs><g id="Graphic_Element" data-name="Graphic Element"><ellipse class="cls-1" cx="319.39" cy="332.38" rx="267.03" ry="277.89"/><path class="cls-2" d="M609.91,913.73c-176.11,0-319.39-149.1-319.39-332.38S433.8,249,609.91,249,929.3,398.08,929.3,581.35,786,913.73,609.91,913.73Zm0-610.26c-147.24,0-267,124.66-267,277.88s119.79,277.9,267,277.9,267-124.67,267-277.9S757.15,303.47,609.91,303.47Z" transform="translate(-290.52 -248.98)"/><path class="cls-3" d="M695.25,702.83q-21,21.42-56.2,26.83v42.86H601.22V730.43a165.35,165.35,0,0,1-46.19-10,122,122,0,0,1-37.28-22l16.32-36.28q32.28,26.25,69.74,28.95v-80.3Q579,604.2,561.89,596.29a73.47,73.47,0,0,1-28.56-23.55q-11.51-15.65-11.5-40.73a74.1,74.1,0,0,1,10-38,83.27,83.27,0,0,1,28-28.57q18-11.37,41.36-14.47V408.09h37.83v42.46a149.53,149.53,0,0,1,40.44,10.81,107,107,0,0,1,31.9,20.46l-16.32,36.29Q668,495,636.46,490.31v83.77q24.84,6.58,41.17,14.1a70.37,70.37,0,0,1,27.45,22.58q11.13,15.06,11.13,39.37Q716.21,681.41,695.25,702.83ZM578.59,551.11q8.89,8.31,25.22,14.1V490.7q-15.94,3.48-25,13.51t-9.08,25.1Q569.69,542.83,578.59,551.11ZM660.2,676.2q8.14-9.47,8.16-24.52,0-12-8.16-19.3T636.46,620v69.11Q652,685.65,660.2,676.2Z" transform="translate(-290.52 -248.98)"/><path class="cls-4" d="M310,581.35c0-179.88,138-326.83,309.65-332.2-3.24-.1-6.48-.17-9.74-.17-176.11,0-319.39,149.1-319.39,332.37S433.8,913.73,609.91,913.73c3.26,0,6.5-.06,9.74-.17C448,908.19,310,761.24,310,581.35Z" transform="translate(-290.52 -248.98)"/><path class="cls-3" d="M609.91,303.47c-2.85,0-5.69.06-8.52.15,143.31,4.7,258.5,127.48,258.5,277.73s-115.19,273-258.5,277.74c2.83.09,5.67.16,8.52.16,147.24,0,267-124.67,267-277.9S757.15,303.47,609.91,303.47Z" transform="translate(-290.52 -248.98)"/><path class="cls-2" d="M571.52,542.17q8.9,8.31,25.22,14.09V481.75q-15.94,3.48-25,13.51t-9.08,25.1Q562.62,533.88,571.52,542.17Zm81.61,125.08q8.14-9.45,8.16-24.51,0-12-8.16-19.3t-23.74-12.36v69.1Q645,676.7,653.13,667.25Zm35,26.63q-21,21.43-56.2,26.83v42.86H594.15V721.49a165.35,165.35,0,0,1-46.19-10,122.23,122.23,0,0,1-37.28-22L527,653.16q32.28,26.25,69.74,29v-80.3q-24.86-6.55-41.92-14.47a73.3,73.3,0,0,1-28.56-23.55q-11.5-15.63-11.5-40.73a74.12,74.12,0,0,1,10-38,83.21,83.21,0,0,1,28-28.56q18-11.39,41.37-14.48V399.14H632V441.6a149.9,149.9,0,0,1,40.44,10.81,106.78,106.78,0,0,1,31.9,20.47L688,509.16Q660.91,486,629.39,481.37v83.77q24.84,6.57,41.17,14.09A70.54,70.54,0,0,1,698,601.81q11.13,15.06,11.13,39.38Q709.14,672.46,688.18,693.88Z" transform="translate(-290.52 -248.98)"/></g></svg>